<svg xmlns="http://www.w3.org/2000/svg" xmlns:xlink="http://www.w3.org/1999/xlink" version="1.1" x="0px" y="0px" viewBox="0 0 100 125" style="enable-background:new 0 0 100 100;" xml:space="preserve"><path d="M31.1,46.8L31.1,46.8c-8.7,0-15.7-7-15.7-15.7v0c0-8.7,7-15.7,15.7-15.7h0c8.7,0,15.7,7,15.7,15.7v0  C46.8,39.8,39.8,46.8,31.1,46.8z"/><path d="M68.5,46.8L68.5,46.8c-8.7,0-15.7-7-15.7-15.7v0c0-8.7,7-15.7,15.7-15.7h0c8.7,0,15.7,7,15.7,15.7v0  C84.2,39.8,77.2,46.8,68.5,46.8z"/><path d="M31.1,84.2L31.1,84.2c-8.7,0-15.7-7-15.7-15.7v0c0-8.7,7-15.7,15.7-15.7h0c8.7,0,15.7,7,15.7,15.7v0  C46.8,77.1,39.8,84.2,31.1,84.2z"/><path d="M68.5,84.2L68.5,84.2c-8.7,0-15.7-7-15.7-15.7v0c0-8.7,7-15.7,15.7-15.7h0c8.7,0,15.7,7,15.7,15.7v0  C84.2,77.1,77.2,84.2,68.5,84.2z"/><text x="0" y="115" fill="#000000" font-size="5px" font-weight="bold" font-family="'Helvetica Neue', Helvetica, Arial-Unicode, Arial, Sans-serif">Created by Shiva</text><text x="0" y="120" fill="#000000" font-size="5px" font-weight="bold" font-family="'Helvetica Neue', Helvetica, Arial-Unicode, Arial, Sans-serif">from the Noun Project</text></svg>